<?xml version="1.0" encoding="UTF-8"?>
<svg width="200" height="45" viewBox="0 0 200 45" fill="none" xmlns="http://www.w3.org/2000/svg">
  <!-- SonarCloud Logo Symbol -->
  <g transform="translate(0, 2) scale(0.8)">
    <path d="M37.15 12.95L42.89 16.57V30.51L25.84 40.63L8.79 30.51V16.57L14.53 12.95L25.84 19.69L37.15 12.95Z" fill="#549DD0"/>
    <path d="M25.84 19.69V40.63L8.79 30.51V16.57L14.53 12.95L25.84 19.69Z" fill="#2E7BC4"/>
    <path d="M25.84 19.69V40.63L42.89 30.51V16.57L37.15 12.95L25.84 19.69Z" fill="#2E7BC4"/>
    <path d="M8.79 16.57L25.84 6.45L42.89 16.57L37.15 12.95L25.84 19.69L14.53 12.95L8.79 16.57Z" fill="#2E7BC4"/>
  </g>
  <!-- SonarCloud Text as Path -->
  <g transform="translate(50, 28)">
    <path d="M1.5-0.2c-0.4-0.2-0.7-0.5-0.9-0.9c-0.2-0.4-0.3-0.8-0.3-1.3c0-0.5,0.1-0.9,0.3-1.3c0.2-0.4,0.5-0.7,0.9-0.9 c0.4-0.2,0.8-0.3,1.3-0.3c0.5,0,0.9,0.1,1.3,0.3c0.4,0.2,0.7,0.5,0.9,0.9c0.2,0.4,0.3,0.8,0.3,1.3c0,0.5-0.1,0.9-0.3,1.3 c-0.2,0.4-0.5,0.7-0.9,0.9c-0.4,0.2-0.8,0.3-1.3,0.3C2.3,0.1,1.9,0,1.5-0.2z" fill="#2E7BC4"/>
    <path d="M8.1,0.1c-0.5,0-1-0.1-1.4-0.3C6.3-0.4,6-0.7,5.8-1.1C5.6-1.5,5.5-1.9,5.5-2.4c0-0.5,0.1-0.9,0.3-1.3 c0.2-0.4,0.5-0.7,0.9-0.9c0.4-0.2,0.8-0.3,1.4-0.3c0.5,0,1,0.1,1.4,0.3c0.4,0.2,0.7,0.5,0.9,0.9c0.2,0.4,0.3,0.8,0.3,1.3 c0,0.5-0.1,0.9-0.3,1.3C10.2-0.7,9.9-0.4,9.5-0.2C9.1,0,8.7,0.1,8.1,0.1z" fill="#2E7BC4"/>
    <path d="M15.8,0h-1.2v-4.8h1.2V0z M14.5-6.1c-0.2,0-0.3-0.1-0.4-0.2c-0.1-0.1-0.2-0.3-0.2-0.4c0-0.2,0.1-0.3,0.2-0.4 c0.1-0.1,0.3-0.2,0.4-0.2c0.2,0,0.3,0.1,0.4,0.2c0.1,0.1,0.2,0.3,0.2,0.4c0,0.2-0.1,0.3-0.2,0.4C14.8-6.1,14.7-6.1,14.5-6.1z" fill="#2E7BC4"/>
    <path d="M21.3,0.1c-0.5,0-1-0.1-1.4-0.3c-0.4-0.2-0.7-0.5-0.9-0.9c-0.2-0.4-0.3-0.8-0.3-1.3c0-0.5,0.1-0.9,0.3-1.3 c0.2-0.4,0.5-0.7,0.9-0.9c0.4-0.2,0.8-0.3,1.4-0.3c0.5,0,1,0.1,1.4,0.3c0.4,0.2,0.7,0.5,0.9,0.9c0.2,0.4,0.3,0.8,0.3,1.3 c0,0.5-0.1,0.9-0.3,1.3c-0.2,0.4-0.5,0.7-0.9,0.9C22.3,0,21.9,0.1,21.3,0.1z" fill="#2E7BC4"/>
    <path d="M28.1,0.1c-0.5,0-1-0.1-1.4-0.3c-0.4-0.2-0.7-0.5-0.9-0.9c-0.2-0.4-0.3-0.8-0.3-1.3c0-0.5,0.1-0.9,0.3-1.3 c0.2-0.4,0.5-0.7,0.9-0.9c0.4-0.2,0.8-0.3,1.4-0.3c0.5,0,1,0.1,1.4,0.3c0.4,0.2,0.7,0.5,0.9,0.9c0.2,0.4,0.3,0.8,0.3,1.3 c0,0.5-0.1,0.9-0.3,1.3c-0.2,0.4-0.5,0.7-0.9,0.9C29.1,0,28.7,0.1,28.1,0.1z" fill="#2E7BC4"/>
    <path d="M35.8,0.1c-0.5,0-1-0.1-1.4-0.3c-0.4-0.2-0.7-0.5-0.9-0.9c-0.2-0.4-0.3-0.8-0.3-1.3c0-0.5,0.1-0.9,0.3-1.3 c0.2-0.4,0.5-0.7,0.9-0.9c0.4-0.2,0.8-0.3,1.4-0.3c0.5,0,1,0.1,1.4,0.3c0.4,0.2,0.7,0.5,0.9,0.9c0.2,0.4,0.3,0.8,0.3,1.3 c0,0.5-0.1,0.9-0.3,1.3c-0.2,0.4-0.5,0.7-0.9,0.9C36.8,0,36.4,0.1,35.8,0.1z" fill="#2E7BC4"/>
    <path d="M43.5,0.1c-0.5,0-1-0.1-1.4-0.3c-0.4-0.2-0.7-0.5-0.9-0.9c-0.2-0.4-0.3-0.8-0.3-1.3c0-0.5,0.1-0.9,0.3-1.3 c0.2-0.4,0.5-0.7,0.9-0.9c0.4-0.2,0.8-0.3,1.4-0.3c0.5,0,1,0.1,1.4,0.3c0.4,0.2,0.7,0.5,0.9,0.9c0.2,0.4,0.3,0.8,0.3,1.3 c0,0.5-0.1,0.9-0.3,1.3c-0.2,0.4-0.5,0.7-0.9,0.9C44.5,0,44.1,0.1,43.5,0.1z" fill="#2E7BC4"/>
  </g>
</svg>
